<svg xmlns="http://www.w3.org/2000/svg" xmlns:xlink="http://www.w3.org/1999/xlink" viewBox="0 0 1072.13 222.55"><defs><style>.cls-1{fill:url(#Naamloos_verloop_7);}.cls-2{fill:url(#Naamloos_verloop_7-2);}.cls-3{fill:url(#Naamloos_verloop_7-6);}.cls-4{fill:url(#Naamloos_verloop_7-9);}</style><linearGradient id="Naamloos_verloop_7" x1="-9.61" y1="111.27" x2="1103.39" y2="111.27" gradientUnits="userSpaceOnUse"><stop offset="0" stop-color="#561f55"/><stop offset="1" stop-color="#e72377"/></linearGradient><linearGradient id="Naamloos_verloop_7-2" x1="-5.61" y1="130.48" x2="1107.39" y2="130.48" xlink:href="#Naamloos_verloop_7"/><linearGradient id="Naamloos_verloop_7-6" x1="-5.61" y1="130.68" x2="1107.39" y2="130.68" xlink:href="#Naamloos_verloop_7"/><linearGradient id="Naamloos_verloop_7-9" x1="-5.61" y1="130.58" x2="1107.39" y2="130.58" xlink:href="#Naamloos_verloop_7"/></defs><title>logo</title><g id="Laag_2" data-name="Laag 2"><g id="Laag_1-2" data-name="Laag 1"><polygon class="cls-1" points="141.03 0 0 0 16.19 120.42 43.51 120.42 50.68 222.55 109.7 76.42 64.54 76.42 62.78 46.55 122.29 46.55 141.03 0"/><path class="cls-2" d="M209.81,199.08l-8.64-23.25H142.34l-8.64,23.25H100.57L153.44,61.87h36.62l52.87,137.21Zm-38.06-108-21.39,59h42.79Z"/><path class="cls-2" d="M350.31,199.08l-65.42-89.49v89.49H255.68V61.87h30l63.57,86.2V61.87h29.21V199.08Z"/><path class="cls-2" d="M437.32,199.08V87.58H397.2V61.87H506.65V87.58H466.74v111.5Z"/><path class="cls-2" d="M607,199.08l-8.64-23.25H539.55l-8.64,23.25H497.79L550.66,61.87h36.62l52.87,137.21ZM569,91.08l-21.39,59h42.79Z"/><path class="cls-3" d="M642,179.74l16-22.83q17.9,18.72,43.61,18.72,11.52,0,17.69-4.42t6.17-10.8q0-5.56-5.86-9.15A43,43,0,0,0,705,146q-8.74-1.65-19-4.63a146.81,146.81,0,0,1-19-6.89,35,35,0,0,1-14.61-12.34q-5.86-8.43-5.86-20.57,0-17.69,14.19-29.73t37.85-12q32.71,0,53.49,19.13L735.8,100.75q-16.25-15-39.91-15-9.05,0-14.19,3.7a11.58,11.58,0,0,0-5.14,9.87q0,4.94,5.86,8.23a49.81,49.81,0,0,0,14.61,5q8.74,1.75,18.93,4.83a148.87,148.87,0,0,1,18.93,7.1A35.82,35.82,0,0,1,749.48,137q5.86,8.43,5.86,20.57,0,19.75-14.09,31.89t-40.83,12.14Q663.8,201.55,642,179.74Z"/><path class="cls-2" d="M803.89,199.08V87.58H763.78V61.87H873.22V87.58H833.31v111.5Z"/><path class="cls-2" d="M891.93,199.08V61.87h29.21V199.08Z"/><path class="cls-4" d="M962.59,181.7q-20.88-19.85-20.88-51.12,0-31.48,20.88-51.22t52.36-19.75q38.47,0,57.19,33.53L1047,105.48a37.78,37.78,0,0,0-13.27-14.3,34,34,0,0,0-18.82-5.66q-18.72,0-31,12.75t-12.24,32.3q0,19.54,12.24,32.3t31,12.75a34,34,0,0,0,18.82-5.66,37.78,37.78,0,0,0,13.27-14.3l25.1,12.14q-19.13,33.74-57.19,33.74Q983.47,201.55,962.59,181.7Z"/></g></g></svg>