<svg xmlns="http://www.w3.org/2000/svg" xmlns:xlink="http://www.w3.org/1999/xlink" viewBox="0 0 1133.57 222.55"><defs><style>.cls-1{fill:url(#Naamloos_verloop_7);}.cls-2{fill:url(#Naamloos_verloop_7-3);}.cls-3{fill:url(#Naamloos_verloop_7-7);}.cls-4{fill:url(#Naamloos_verloop_7-11);}.cls-5{fill:url(#Naamloos_verloop_7-12);}</style><linearGradient id="Naamloos_verloop_7" x1="10.76" y1="130.48" x2="1138.76" y2="130.48" gradientUnits="userSpaceOnUse"><stop offset="0" stop-color="#561f55"/><stop offset="1" stop-color="#e72377"/></linearGradient><linearGradient id="Naamloos_verloop_7-3" x1="10.76" y1="130.37" x2="1138.76" y2="130.37" xlink:href="#Naamloos_verloop_7"/><linearGradient id="Naamloos_verloop_7-7" x1="10.76" y1="130.58" x2="1138.76" y2="130.58" xlink:href="#Naamloos_verloop_7"/><linearGradient id="Naamloos_verloop_7-11" x1="10.76" y1="111.27" x2="1138.76" y2="111.27" xlink:href="#Naamloos_verloop_7"/><linearGradient id="Naamloos_verloop_7-12" x1="10.76" y1="149.18" x2="1138.76" y2="149.18" xlink:href="#Naamloos_verloop_7"/></defs><title>logo</title><g id="Laag_2" data-name="Laag 2"><g id="Laag_1-2" data-name="Laag 1"><path class="cls-1" d="M209.81,199.08l-8.64-23.25H142.34l-8.64,23.25H100.57L153.44,61.87h36.62l52.87,137.21Zm-38.06-108-21.39,59h42.79Z"/><path class="cls-1" d="M350.31,199.08l-65.42-89.49v89.49H255.68V61.87h30l63.57,86.2V61.87h29.21V199.08Z"/><path class="cls-2" d="M209.75,198.92l-8.63-23.23H142.34l-8.64,23.23H100.61l52.82-137.1H190l52.83,137.1ZM171.73,91l-21.37,59h42.75Z"/><path class="cls-2" d="M350.22,198.92,284.86,109.5v89.42H255.67V61.82h30l63.52,86.12V61.82h29.19v137.1Z"/><path class="cls-2" d="M498.95,198.92V87.51H458.86V61.82H568.21V87.51H528.34V198.92Z"/><path class="cls-2" d="M668.58,198.92l-8.63-23.23H601.16l-8.64,23.23H559.43l52.82-137.1h36.59l52.83,137.1ZM630.55,91l-21.37,59h42.75Z"/><path class="cls-3" d="M703.6,179.6l16-22.81q17.89,18.7,43.57,18.7,11.51,0,17.68-4.42t6.17-10.8q0-5.55-5.86-9.15a43.07,43.07,0,0,0-14.59-5.24q-8.74-1.64-19-4.63a146.19,146.19,0,0,1-19-6.89A35,35,0,0,1,714,122q-5.86-8.44-5.86-20.56,0-17.67,14.18-29.7t37.83-12q32.69,0,53.44,19.12l-16.23,21.78q-16.24-15-39.88-15-9.05,0-14.18,3.7a11.56,11.56,0,0,0-5.14,9.87q0,4.93,5.86,8.23a49.68,49.68,0,0,0,14.59,5q8.74,1.76,18.9,4.84a148.26,148.26,0,0,1,18.91,7.09A35.81,35.81,0,0,1,811,136.84q5.86,8.44,5.86,20.55,0,19.73-14.08,31.87T762,201.39Q725.38,201.39,703.6,179.6Z"/><path class="cls-2" d="M865.43,198.92V87.51H825.35V61.82H934.7V87.51H894.82V198.92Z"/><path class="cls-2" d="M953.47,198.92V61.82h29.19v137.1Z"/><path class="cls-1" d="M1024.11,181.55q-20.86-19.83-20.86-51.07,0-31.46,20.86-51.18t52.31-19.73q38.44,0,57.15,33.5l-25.08,12.34a37.69,37.69,0,0,0-13.26-14.28,34,34,0,0,0-18.81-5.65q-18.7,0-30.93,12.74t-12.23,32.28q0,19.52,12.23,32.27t30.93,12.75a33.94,33.94,0,0,0,18.81-5.66,37.69,37.69,0,0,0,13.26-14.28l25.08,12.13q-19.12,33.72-57.15,33.72Q1045,201.39,1024.11,181.55Z"/><polygon class="cls-4" points="141.03 0 0 0 16.19 120.42 43.51 120.42 50.68 222.55 109.7 76.42 64.54 76.42 62.78 46.55 122.29 46.55 141.03 0"/><path class="cls-5" d="M398.2,160.28V138.08h49.33v22.19Z"/></g></g></svg>